/* XPM */
static char *result[] = {
/* columns rows colors chars-per-pixel */
"24 32 31 1 ",
"  c black",
". c gray2",
"X c #5A0800",
"o c #6B0000",
"O c #413705",
"+ c #613C00",
"@ c gray43",
"# c #940000",
"$ c #9C2900",
"% c #B82626",
"& c #C52029",
"* c #E62931",
"= c #B47832",
"- c #E63E45",
"; c #985941",
": c #E48676",
"> c #3B8FE3",
", c #67A8EA",
"< c #808080",
"1 c gray57",
"2 c #9A9A9A",
"3 c #B4B4B4",
"4 c gray74",
"5 c #F2B586",
"6 c #B5E0FF",
"7 c LightGray",
"8 c #D7D7D7",
"9 c #F1F1F1",
"0 c gray98",
"q c white",
"w c None",
/* pixels */
"wwwwwwwwwwwwwwwwwwwwwwww",
"wwwwwwwwwwwwwwwwwwwwwwww",
"wwwwwwwwwwwwwwwwwwwwwwww",
"wwwwwwwwwwwwwwwwwwwwwwww",
"wwwwwwwwwwwwwwwwwwwwwwww",
"wwwwwwwww<<<<<<wwwwwwwww",
"wwwwwwww<777777<wwwwwwww",
"wwwwwww<7q4224q7<wwwwwww",
"wwwwwww<q47qq74q<wwwwwww",
"wwwwww<447q44q474<wwwwww",
"wwwwww<4<55<<55<4<wwwwww",
"wwwwww<4  =55=  4<wwwwww",
"wwwwww<7<9O55O9<7<wwwwww",
"wwwwwo<7<oooooo<7<wwwwww",
"wwwoo#<4<#%%###<4<wwwwww",
"wwo%%#4<<<%###<<<4wwwwww",
"wwwooowX1o#%##o1Xwwwwwww",
"wwwwwwX&3>o##o>3&Xwwwwww",
"wwwwwX**8,-oo-,8**Xwwwww",
"wwwww+X&86----68&X+wwwww",
"wwww+:;X38666683X;:+wwww",
"www+5:+w13333331w+:5+www",
"www+;;+w@111111@w+;;+www",
"wwww++wX11333311Xw++wwww",
"wwwwwwwX33388333Xwwwwwww",
"wwwwwwX&33800833&Xwwwwww",
"wwwwwwX&38000083&Xwwwwww",
"wwwwwwX&38800883&Xwwwwww",
"wwwwwwX&>388883>&Xwwwwww",
"wwwwwwX$&>,,,,>&$Xwwwwww",
"wwwwwwwXXXXXXXXXXwwwwwww",
"wwwwwwww...ww...wwwwwwww"
};
