/* XPM */
static char *_9adfaeaa2494936e2bc2e0a873ab890VTgSteSlXKJCQx3j[] = {
/* columns rows colors chars-per-pixel */
"71 93 128 2 ",
"   c #327938",
".  c #FFEB68",
"X  c #378E48",
"o  c #255A25",
"O  c #075332",
"+  c #C3C830",
"@  c #98B028",
"#  c #7FA223",
"$  c #6A8D2B",
"%  c #144D14",
"&  c #205420",
"*  c #FFDD69",
"=  c #ABB05D",
"-  c #3D893F",
";  c #2C612B",
":  c #FEE996",
">  c #CED568",
",  c #346734",
"<  c #3B6E3D",
"1  c #295C29",
"2  c #588358",
"3  c #195119",
"4  c #FDF376",
"5  c #316430",
"6  c #427340",
"7  c #FDF26B",
"8  c #68956A",
"9  c #246932",
"0  c #438B45",
"q  c #1C521C",
"w  c #4D794E",
"e  c #FDF367",
"r  c #FEF966",
"t  c #4E8929",
"y  c #10551D",
"u  c #1D541D",
"i  c #4F7C22",
"p  c #EAD82C",
"a  c #407941",
"s  c #306430",
"d  c #2E5F2E",
"f  c #88A689",
"g  c #3D6A19",
"h  c #678F46",
"j  c #418142",
"k  c #5B9355",
"l  c #225A1A",
"z  c #D9C12D",
"x  c #2C5F1D",
"c  c #4A804A",
"v  c #0A4F17",
"b  c #F1DB32",
"n  c #488B49",
"m  c #226223",
"M  c #2B6E2D",
"N  c #22662E",
"B  c #FBE64D",
"V  c #487648",
"C  c #19541D",
"Z  c #2F622F",
"A  c #9FCB35",
"S  c #406F40",
"D  c #326634",
"F  c #527D52",
"G  c #275B27",
"H  c #1B5825",
"J  c #FFE032",
"K  c #FFDA32",
"L  c #FFFA36",
"P  c #FFE634",
"I  c #FFE135",
"U  c #FFE430",
"Y  c #FFCB30",
"T  c #FFEA32",
"R  c #FFDD20",
"E  c #FFD330",
"W  c #EC7A25",
"Q  c #F4992B",
"!  c #FFF034",
"~  c #FED90F",
"^  c #FDC12E",
"/  c #F18A27",
"(  c #FFE724",
")  c #F7AB2B",
"_  c #EA6D23",
"`  c #FEEE13",
"'  c #FFD236",
"]  c #DF5B25",
"[  c #FFFA22",
"{  c #FFE33D",
"}  c #E06A28",
"|  c #FFE84E",
" . c #D54B28",
".. c #FEC115",
"X. c #E86120",
"o. c #FCDB52",
"O. c #FFE046",
"+. c #FCB743",
"@. c #205C32",
"#. c #CC3227",
"$. c #26712B",
"%. c #FBE131",
"&. c #D8E235",
"*. c #EFE11D",
"=. c #0B6117",
"-. c #174F17",
";. c #4AA84C",
":. c #518C51",
">. c #E8CF2A",
",. c #C9BF1E",
"<. c #EBD73B",
"1. c #D6FB1C",
"2. c #226549",
"3. c #376737",
"4. c #386932",
"5. c #185015",
"6. c #D9E2D9",
"7. c #5B8440",
"8. c #50794D",
"9. c #6B9E3E",
"0. c #2F7535",
"q. c #C0D20D",
"w. c #F7E44D",
"e. c #A7DA5C",
"r. c #7DA466",
"t. c #F9E432",
"y. c #256E29",
"u. c None",
/* pixels */
"u.u.u.u.u.u.u.u.u.u.u.u.u.u.u.u.u.u.u.u.u.u.u.u.u.F u.u.u.u.u.u.u.u.u.u.u.u.u.u.1 u.u.u.u.u.u.u.u.u.u.u.u.u.u.u.u.u.u.u.u.u.u.u.u.u.u.u.u.u.u.",
"u.u.u.u.u.u.u.u.u.u.u.u.u.u.u.u.u.u.u.u.u.u.u.u.u.-.Z u.u.u.u.u.u.u.u.u.u.u.u.u.l u.u.u.u.u.u.u.u.u.u.u.u.u.u.u.u.u.u.u.u.u.u.u.u.u.u.u.u.u.u.",
"u.u.u.u.u.u.u.u.u.u.u.u.u.u.u.u.u.u.u.u.u.u.u.u.u.G -.u.u.u.u.u.u.u.u.u.u.u.u.u.-.u.u.u.u.u.u.u.u.u.u.u.u.u.u.u.u.u.u.u.u.u.u.u.u.u.u.u.u.u.u.",
"u.u.u.u.u.u.u.u.u.u.. | . u.u.u.u.u.u.u.u.u.u.u.u.7.3 j u.u.u.u.u.u.u.u.u.u.u.u.-.u.u.u.u.u.u.u.u.u.u.u.u.u.u.u.u.u.u.u.u.u.u.u.u.u.u.u.u.u.u.",
"u.u.u.u.u.u.u.u.u.u.~ I R ~ %.u.u.u.u.u.u.u.u.4 L [ g O # ~ o.u.u.u.u.u.u.u.u.u.-.D u.u.u.u.u.u.u.u.u.u.u.u.u.u.u.u.u.u.u.u.u.u.u.u.u.u.u.u.u.",
"u.u.u.u.u.u.u.u.u.R ( I I I R ~ u.u.u.u.u.u.[ [ [ [ @ 3 t *...u.u.u.u.u.u.u.u.u.o s u.u.u.u.u.u.u.u.u.u.u.u.u.u.u.u.u.u.u.u.u.u.u.u.u.u.u.u.u.",
"u.u.u.u.u.u.u.u.u.R J I J I { R ~ u.u.u.u.` [ L L L b m H z E u.u.u.u.u.u.u.u.u., , u.u.u.u.u.u.u.u.u.u.u.u.u.u.u.u.u.u.u.u.u.u.u.u.u.u.u.u.u.",
"u.u.u.u.u.u.u.u.u.R J J J J J I R R u.u.` [ L L ! E U 9.v # u.u.u.u.u.u.u.u.u.u., 1 u.u.u.u.u.u.u.u.u.u.u.u.u.u.u.u.u.u.u.u.u.u.u.u.u.u.u.u.u.",
"u.u.u.u.u.u.u.u.u.R J J J J J J { ~ u.u.[ L L L E ^ ! A y i u.u.u.u.u.u.u.u.u.u., o u.u.u.u.u.u.u.u.u.u.u.u.u.u.u.u.u.u.u.u.u.u.u.u.u.u.u.u.u.",
"u.u.u.u.u.u.u.u.{ R I J J J J J I R u.| L L L E Y U L T M H u.u.u.u.u.u.u.u.u.u., o u.u.u.u.u.u.u.u.u.u.u.u.u.u.u.u.u.u.u.u.u.u.u.u.u.u.u.u.u.",
"u.u.u.u.u.u.u.u.{ R J J J J J J J I K T L L K Y J L ! T i y u.u.u.u.u.u.u.u.u.u., 1 u.u.u.u.u.u.u.u.u.u.u.u.u.u.u.u.u.u.u.u.u.u.u.u.u.u.u.u.u.",
"u.u.u.u.u.u.u.u.{ R T T P J J J J I K ! L U Y E ! ! K ` A y u.u.u.u.u.u.u.u.u.u.< 1 a u.u.u.u.u.u.u.u.u.u.u.u.u.u.u.u.u.u.u.u.u.u.u.u.u.u.u.u.",
"u.u.u.u.u.u.u.u.J ( P K P ! P I I J K ! ! E Y P T I ~ L u.D % u.u.u.u.u.u.u.u.u.< 1 a u.u.u.u.u.u.u.u.u.u.u.u.u.u.u.u.u.u.u.u.u.u.u.u.u.u.u.u.",
"u.u.u.u.u.u.u.u.e ~ / Q ) Y T ! L ! J J I ^ K T I R ! u.u.8 v a u.u.u.u.u.u.u.u.< 1 6 u.u.u.u.u.u.u.u.u.u.u.u.u.u.u.u.u.u.u.u.u.u.u.u.u.u.u.u.",
"u.u.u.u.u.u.u.u.r +.X.Q / _ Q ) Q %.L U Y Y T I U ( : u.u.r.% -.u.u.u.u.u.u.u.u.< 1 6 u.u.u.u.u.u.u.u.u.u.u.u.u.u.u.u.u.u.u.u.u.u.u.u.u.u.u.u.",
"u.u.u.u.u.u.e e * +./ W / W W  .#.] E L Y K T P J J | { I w.x v D u.u.u.u.u.u.u.< d < u.u.u.u.u.u.u.u.u.u.u.u.u.u.u.u.u.u.u.u.u.u.u.u.u.u.u.u.",
"u.u.u.u.e { ` ..W Q Q / / _ } Q ) _ _ ) E L U E ' J R R R ( @ N y r.u.u.u.u.u.u.< d , u.u.u.u.u.u.u.u.u.u.u.u.u.u.u.u.u.u.u.u.u.u.u.u.u.u.u.u.",
"u.u.u.. ~ R T U W _ W W W W / / ! ^ X.X./ K Y Y J J I I I J T $ O 5.+ u.u.u.u.u.6 1 5 u.u.u.u.u.u.u.u.u.u.u.u.u.u.u.u.u.u.u.u.u.u.V G % u.u.u.",
"u.u.P ~ J I P Y +.Q W W _ ] / Q ]  ./ Q X./ K U U U U U I J U + 9 y i ` u.u.u.u.< d d u.u.u.u.u.u.u.u.u.u.u.u.u.u.u.u.u.u.u.u.u.u., 3 u.u.u.u.",
"u.O.~ { I J ! ) Q Q / W } ] ] } #. .Q ) W Q I E E K K J J J J t.$ O & p [ u.u.u.  d 1 u.u.u.u.u.u.u.u.u.u.u.u.u.u.u.u.u.u.u.u.u.< d 3 u.u.u.u.",
"u.~ J I J K L ) X.W W } ] Q E /  .] Q Q W ^ ' Y E K K K J I J U + ; O 9.[ ~ u.u.  d o u.u.u.u.u.u.u.u.u.u.u.u.u.u.u.u.u.u.u.u.u., & o u.u.u.u.",
". ~ { J I J T ^ / Q Q / } } ) / #.] Q Q _ ) I K J U I J J J J U b $ O 2.&.` u.u.  d & u.u.u.u.u.u.u.u.u.u.u.u.u.u.u.u.u.u.u.u., 5 -.u.u.u.u.u.",
". R J I I P U ) +.+./ / W ] Q L Q W ) Q _ +.P P I J J J J J J J P + o O h u.u.u.  d & u.u.u.u.u.u.u.u.u.u.u.u.u.u.u.u.u.u.u.a , o u u.u.u.u.u.",
"u.. ~ R J J T ^ Q Q Q W } } ] Q Q _ W X.) O.Y U P J J J J J I I P p $ @.O u.u.u.6 d & u.u.u.u.u.u.u.u.u.u.u.u.u.u.u.u.u.u.u., 5 q u.u.u.u.u.u.",
"u.u.u.| R R J T .._ ] X.} W _ #.#.W / ) K ( Y Y J T P J U I J R ~ ( > @.% u.u.u.  d & u.u.u.u.u.u.u.u.u.u.u.u.u.u.u.u.u.u.0 , 1 u u.u.u.u.u.u.",
"u.u.u.u.u.u.u.u.u.: _ Q  . .] } ) Y Y P ^ K T Y ^ ' T T U ! ! K o.4 u.6 ; @.u.u.  d & u.u.u.u.u.u.u.u.u.u.u.u.u.u.u.u.u.u., , 3 u.u.u.u.u.u.u.",
"u.u.u.u.u.u.u.u.u.| ` ! / _ ) T L P ^ U Y Y T T K = w + &.@ u.u.u.u.u.u.d O u.u.  d & u.u.u.u.u.u.u.u.u.u.u.u.u.u.u.u.u.< , d u.u.u.u.u.u.u.u.",
"u.u.u.u.u.u.u.u.u.` ! P L K J ! P K ) E T ^ K P ! + w 2.;.9 w u.u.u.u.u.o @.u.u.- d & u.u.u.u.u.u.u.u.u.u.u.u.u.u.u.u.u., , 3 u.u.u.u.u.u.u.u.",
"u.u.u.u.u.u.u.u.R [ I J I Y E U P K ) E T E E P U ( %.f 2.; o 8 u.u.u.u.3.q , u.- 5 & u.u.u.u.u.u.u.u.u.u.u.u.u.u.u.u.w , & % u.u.u.u.u.u.u.u.",
"u.u.u.u.u.u.u.u.{ [ J U E ^ K T U E ) K P K E K J P R . < q o $.u.u.u.u.o % , u.  5 & u.u.u.u.u.u.u.u.u.u.u.u.u.u.u.u., 5 -.u.u.u.u.u.u.u.u.u.",
"u.u.u.u.u.u.u.u.. [ T J Y ^ J P ' ^ ..U P K E E U I ~ | u.q d 9 u.u.u.u.u.% < $., , & u.u.u.u.u.u.* o.e u.u.u.u.u.u.:., s q u.u.u.u.u.u.u.u.u.",
"u.u.u.u.u.u.u.u.. [ L K ^ Y P I ..^ u.P ( J E E J { ~ . u.u.o @.- u.u.u.u.% ; 5 , , & u.u.u.u.u.u.J U U O.u.u.u.u.u., , 1 u.u.u.u.u.u.u.u.u.u.",
"u.u.u.u.u.u.u.u.. [ L K ^ E ! K ..u.u.| ( P I E ' I ~ | u.u.-.;   u.u.u.u.3 q 9 , , & u.u.u.u.u.| U J J U R * u.u.:., 5 u u.u.u.u.u.u.u.u.u.u.",
"u.u.u.u.u.u.u.u.7 ` ! E Y J T ~ +.u.u.. ` T ! K K ' U R u.u.u.q 9 u.u.u.u.o -.< , 1 o u.u.u.u.e U J J J U U ..4 u., , 1 u.u.u.u.u.u.u.u.u.u.u.",
"u.u.u.u.u.u.u.u.u.` [ ' ' T ( Y u.u.u.u.( ( ! J J Y E ~ u.u.u.u & a u.u.u.u.% N @.O o u.u.u.u.. P J I J J J R * k , , o u.u.u.u.u.u.u.u.u.u.u.",
"u.u.u.u.u.u.u.u.u.4 ` E R ( o.u.u.u.u.u.u.[ [ P I J Y ~ u.u.u.u.3 & u.u.u.u.H m x ; Z u.u.u.r P I J J J J J R * < , d u.u.u.u.u.u.u.u.u.u.u.u.",
"u.u.u.u.u.u.u.u.u.u.. ~ ' * u.u.u.u.u.u.u.u.L ` ( T E ..u.u.u.u.q % u.u.u.u.e.1.L L L L 7 e * P I J J J J K R O.c , q u.u.u.u.u.u.u.u.u.u.u.u.",
"u.u.u.u.u.u.u.u.u.u.u.u.u.u.u.u.u.u.u.u.u.u.u.e [ ( P ` u.u.u.u.u.3 =.u.u.` ( ! L L L L L T ' K U J I J P L ( I k 6 4.u.u.u.u.u.u.u.u.u.u.u.u.",
"u.u.u.u.u.u.u.u.u.u.u.u.u.u.u.u.u.u.u.u.u.u.u.u.u.u.u.u.u.u.u.u.u.q % u.u.~ ! ' ' J ! L L L ! K U J K P P ^ ( L > ,.B B 7 7 u.u.u.u.u.u.u.u.u.",
"u.u.u.u.u.u.u.u.u.u.u.u.u.u.u.u.u.u.u.u.u.u.u.u.u.u.u.u.u.u.u.u.u.D q u.u.z R L U E Y E T L L P K J ! L Q ] / ) Y ( ~ R R R J e u.u.u.u.u.u.u.",
"u.u.u.u.u.u.u.u.u.u.u.u.u.u.u.u.u.u.u.u.u.u.u.u.u.u.u.u.9 - u.u.u.u.-.9 u.u.K R L L J E Y K ! T K ! Y Q _ W _ X.Q L I I J J R R . u.u.u.u.u.u.",
"u.u.u.u.u.u.u.u.u.5 j u.u.u.u.u.u.u.u.u.u.u.u.u.u.u.u.u.o 9 u.u.u.u.3 o u.u.u.q.>.%.! ! J Y Y U ! T ] ] / / W _ _ ^ ! J J I { ~ | u.u.u.u.u.u.",
"u.u.u.u.u.u.u.u.u.1 & n u.u.u.u.u.u.u.u.u.u.u.u.u.u.u.u.u o 0 u.u.u.3.q $.u.u.$.$ >.R U T P Y Y L / ] W } W W / _ W L T J I J ~ r u.u.u.u.u.u.",
"u.u.u.u.u.u.u.u.u., & & n u.u.u.u.u.u.u.u.u.u.u.u.u.u.u.1 &   u.u.u.u.q =.u.u.=.< u.. J J P T T ) ] Q Q W  ._ W W _ ) ! J J ~ . u.u.u.u.u.u.u.",
"u.u.u.u.u.u.u.u.u.u.5 & & 0 u.u.u.u.u.u.u.u.u.u.u.u.u.u.u.q o 0 u.u.u.3 =.u.u.$.< u.u.{ R K P K W / W #.] Q } W / _ W ( ( R O.u.u.u.u.u.u.u.u.",
"u.u.u.u.u.u.u.u.u.u.u.5 & & - u.u.u.u.u.u.u.u.u.u.u.u.u.u.u.& - u.u.u.5 & u.u.X 2 <.~ E J K K ^ W Q )  . .Q _ W W X.) | . e u.u.u.u.u.u.u.u.u.",
"u.u.u.u.u.u.u.u.u.u.u.2 5 & & - u.u.u.u.u.u.u.u.u.u.u.u.u.u.3 y.0 u.u.u.-.s X ;.&.R J I U P E T ^ _ Q Q ] ) } } } _ { u.u.u.u.u.u.u.u.u.u.u.u.",
"u.u.u.u.u.u.u.u.u.u.u.u.< 1 & & u.u.u.u.u.u.u.u.u.u.u.u.u.u.3 o - u.u.u.3 H   &.( I J J P J ^ J L W _ Q / ]  . .} Y R P 7 u.u.u.u.u.u.u.u.u.u.",
"u.u.u.u.u.u.u.u.u.u.u.u.u., o & o u.u.u.u.u.u.u.u.u.u.u.u.u.u.q M u.u.u.< G @ ! U J U T U ^ ^ J L Y / W W W W W ) L P R ~ e u.u.u.u.u.u.u.u.u.",
"u.u.u.u.u.u.u.u.u.u.u.u.u.u., & & 1 u.u.u.u.u.u.u.u.u.u.u.u.u.q C - u.u.u.h *.T U U I E ^ Y J U K P K ^ ^ T L T Y E P { ~ . u.u.u.u.u.u.u.u.u.",
"u.u.u.u.u.u.u.u.u.u.u.u.u.u.u.5 & % 1 u.u.u.u.u.u.u.u.u.u.u.u.s 3   u.u.u.O...Y Y Y ' E K P U P E K K J K ' ! ! E ^ K P R { u.u.u.u.u.u.u.u.u.",
"u.u.u.u.u.u.u.u.u.u.u.u.u.u.u.u.d & % o u.u.u.u.u.u.u.u.u.u.u.u.u m u.u.u.^ Y Y E K J P P J U R E P E K J ^ ' T T Y ^ J P ~ r u.u.u.u.u.u.u.u.",
"u.u.u.u.u.u.u.u.u.u.u.u.u.u.u.u.w 1 & % 1 u.u.u.u.u.u.u.u.u.u.u.u q X u.u.( J P P U U J U U ( o.' T K K T Y ^ E P T Y Y I ( . u.u.u.u.u.u., S ",
"u.u.u.u.u.u.u.u.u.u.u.u.u.u.u.u.u.< o o % 1 u.u.u.u.u.u.u.u.u.u.u.-.0.u.u.u.L L ! L ( R ( *.4 * R T K E P I o...Y T U Y ' U . u.u.u.u.u., Z d ",
"u.u.u.u.u.u.u.u.u.u.u.u.u.u.u.u.u.u., & 1 % ; u.u.u.u.u.u.u.u.u.u.3 1 X u.u.u.h 6 7.u.u.w X u.e ~ T K E U ( r u.Y Y ( ( R ~ r u.u.u.u., , S u.",
"u.u.u.u.u.u.u.u.u.u.u.u.u.u.u.u.u.u.u.5 & d % ; u.u.u.u.u.u.u.u.u.& q   u.u.u.V & ; u.u.C S u.o.~ P K K U ` e u.u.e * | O.. u.u.u.u.5 , c u.u.",
"u.u.u.u.u.u.u.u.u.u.u.u.u.u.u.u.u.u.u.u.1 & 5 & , u.u.u.u.u.u.u.u.u.3 o - u.u.V -.& 5 u.3 8.u.o.R I E K P ` . u.u.u.u.u.u.u.u.u.u., 5 c u.u.u.",
"u.u.u.u.u.u.u.u.u.u.u.u.u.u.u.u.u.u.u.u.< q & 1 % < u.u.u.u.u.u.u.u.-.& 5 u.u.u.u o 3 u.3 4.u.r | R ' K ! ` u.u.u.u.u.u.u.u.u.u., ; S u.u.u.u.",
"u.u.u.u.u.u.u.u.u.u.u.u.u.u.u.u.u.u.u.u.u.o & o , % j u.u.u.u.u.u.u.u.u & 6 u.u.S & u u.C x u.u.. ~ ' K ` L u.u.u.u.u.u.u.u.u.w ; o 5 u.u.u.u.",
"u.u.u.u.u.u.u.u.u.u.u.u.u.u.u.u.u.u.u.u.u.u.3 u d , % 0 u.u.u.u.u.u.u.& & 5 u.u.6.q ; Z & x u.u.e ~ ' U ` u.u.u.u.u.u.u.u.u.2 ; o w u.u.u.u.u.",
"u.u.u.u.u.u.u.u.u.u.u.u.u.u.u.u.u.u.u.u.u.u.u.3 o 5 1 & 0 u.u.u.u.u.u.u.& & 5 u.u.o Z q ; x u.u.> I ~ ` e u.u.u.u.u.u.u.u.f , % F u.u.u.u.u.u.",
"u.u.u.u.u.u.u.u.u.u.u.u.u.u.u.u.u.u.u.u.u.u.u.u.% o , % < u.u.u.u.u.u.u.5 & o   u., 5 o , l u.u.8 + [ 4 u.u.u.u.u.u.u.u.u., , % & u.u.u.u.u.u.",
"u.u.u.u.u.u.u.u.u.u.u.u.u.u.u.u.u.u.u.u.u.u.u.u.u.-.d , % a u.u.u.u.u.u.u.& & d X < 1 5 1 u u.u.@.6 u.u.u.u.u.u.u.u.u.u., , % Z u.u.u.u.u.u.u.",
"u.u.u.u.u.u.u.u.u.u.u.u.u.u.u.u.u.u.u.u.u.u.u.u.u.u.-.5 o 1 - u.u.u.u.u.u.1 & &   - & 5 o & u.u., & u.u.u.u.u.u.u.u.u.8 6 1 o u.u.u.u.u.u.u.u.",
"u.u.u.u.u.u.u.u.u.u.u.u.u.u.u.u.u.u.u.u.u.u.u.u.u.u.% q , & 5 u.u.u.u.u.u.u.& & 5 - o , , & u.u.5 & u.u.u.u.u.u.u.u.u., 1 % G u.u.u.u.u.u.u.u.",
"u.u.u.u.u.u.u.u.u.u.u.u.u.u.u.u.u.u.u.u.u.u.u.u.u.u.u.% G , % < u.u.u.u.u.u.o & o   , d ; -.u.u.; & u.u.u.u.u.u.u.u.c , & ; u.u.u.u.u.u.u.u.u.",
"u.u.u.u.u.u.u.u.u.u.u.u.u.u.u.u.u.u.u.u.u.u.u.u.u.u.u.u.-.Z & ; j u.u.u.u.u.u.& & 1 < o 1 % u.u.; & u.u.u.u.u.u.u.u., ; % < u.u.u.u.u.u.u.u.u.",
"u.u.u.u.u.u.u.u.u.u.u.u.u.u.u.u.u.u.u.u.u.u.u.u.u.u.u.u.% q , % 5 - u.u.u.u.u.o & o , & & -.u.u.d % u.u.u.u.u.u.u.:., % o u.u.u.u.u.u.u.u.u.u.",
"u.u.u.u.u.u.u.u.u.u.u.u.u.u.u.u.u.u.u.u.u.u.u.u.u.u.u.u.u.% 1 & ; < u.u.u.u.u.u.& o o , o 3 u.u.1 & u.u.u.u.u.u.u., 5 % ; u.u.u.u.u.u.u.u.u.u.",
"u.u.u.u.u.u.u.u.u.u.u.u.u.u.u.u.u.u.u.u.u.u.u.u.u.u.u.u.u.u.% 5 & , j u.u.u.u.u.1 & 6 5 1 -.u.u.o 1 u.u.u.u.u.u.0 , % & d u.u.u.u.u.u.u.u.u.u.",
"u.u.u.u.u.u.u.u.u.u.u.u.u.u.u.u.u.u.u.u.u.u.u.u.u.u.u.u.u.u.% 3 ; ; < u.u.u.u.u.u.& 5 ; ; 3 u.u.o 1 u.u.u.u.u.u.< ; & 1 u.u.u.u.u.u.u.u.u.u.u.",
"u.u.u.u.u.u.u.u.u.u.u.u.u.u.u.u.u.u.u.u.u.u.u.u.u.u.u.u.u.u.u.-.5 o ; 6 u.u.u.u.u.o & 5 , 3 u.u.& o u.u.u.u.u.n , & & 1 u.u.u.u.u.u.u.u.u.u.u.",
"u.u.u.u.u.u.u.u.u.u.u.u.u.u.u.u.u.u.u.u.u.u.u.u.u.u.u.u.u.u.u.% q , o 5 0 u.u.u.u.u.& 1 5 q u.u.& o u.u.u.u.u.6 o % & u.u.u.u.u.u.u.u.u.u.u.u.",
"u.u.u.u.u.u.u.u.u.u.u.u.u.u.u.u.u.u.u.u.u.u.u.u.u.u.u.u.u.u.u.u.% o ; ; < u.u.u.u.u.1 & 5 u u.u.& o u.u.u.u.u., % 1 o u.u.u.u.u.u.u.u.u.u.u.u.",
"u.u.u.u.u.u.u.u.u.u.u.u.u.u.u.u.u.u.u.u.u.u.u.u.u.u.u.u.u.u.u.u.q % s % 1 0 u.u.u.u.2 & 1 u u.u.& 3 u.u.u.u.a 1 % & u.u.u.u.u.u.u.u.u.u.u.u.u.",
"u.u.u.u.u.u.u.u.u.u.u.u.u.u.u.u.u.u.u.u.u.u.u.u.u.u.u.u.u.u.u.u.u.% q , & ; u.u.u.u.u.; o & u.u.o 3 u.u.u.u.5 % d & u.u.u.u.u.u.u.u.u.u.u.u.u.",
"u.u.u.u.u.u.u.u.u.u.u.u.u.u.u.u.u.u.u.u.u.u.u.u.u.u.u.u.u.u.u.u.u.u.% G & ; j u.u.u.u., < q u.u.& q u.u.u.j o & & & u.u.u.u.u.u.u.u.u.u.u.u.u.",
"u.u.u.u.u.u.u.u.u.u.u.u.u.u.u.u.u.u.u.u.u.u.u.u.u.u.u.u.u.u.u.u.u.u.3 % Z & 5 u.u.u.u.< , u u.0 o o u.u.u., % d & u.u.u.u.u.u.u.u.u.u.u.u.u.u.",
"u.u.u.u.u.u.u.u.u.u.u.u.u.u.u.u.u.u.u.u.u.u.u.u.u.u.u.u.u.u.u.u.u.u.u.% -.; 1 6 u.u.u.; 5 s u.a & 1 u.u.j o o o o u.u.u.u.u.u.u.u.u.u.u.u.u.u.",
"u.u.u.u.u.u.u.u.u.u.u.u.u.u.u.u.u.u.u.u.u.u.u.u.u.u.u.u.u.u.u.u.u.u.u.u.% & ; ; u.u.u.5 ; 5 j , % 1 u.u., % 5 & 3.u.u.u.u.u.u.u.u.u.u.u.u.u.u.",
"u.u.u.u.u.u.u.u.u.u.u.u.u.u.u.u.u.u.u.u.u.u.u.u.u.u.u.u.u.u.u.u.u.u.u.u.u % , % , u.u., s 5 6 1 & 3 u.j 1 & o & u.u.u.u.u.u.u.u.u.u.u.u.u.u.u.",
"u.u.u.u.u.u.u.u.u.u.u.u.u.u.u.u.u.u.u.u.u.u.u.u.u.u.u.u.u.u.u.u.u.u.u.u.u.% 3 ; o S u.-.5 1 o & 1 u.u.1 % 5 & 3 u.u.u.u.u.u.u.u.u.u.u.u.u.u.u.",
"u.u.u.u.u.u.u.u.u.u.u.u.u.u.u.u.u.u.u.u.u.u.u.u.u.u.u.u.u.u.u.u.u.u.u.u.u.u.% o % Z u 3 6 5 5 & 3.u.j o 1 1 o u.u.u.u.u.u.u.u.u.u.u.u.u.u.u.u.",
"u.u.u.u.u.u.u.u.u.u.u.u.u.u.u.u.u.u.u.u.u.u.u.u.u.u.u.u.u.u.u.u.u.u.u.u.u.u.u.% , 1 G % D , , & 6 u.; 5 , & o u.u.u.u.u.u.u.u.u.u.u.u.u.u.u.u.",
"u.u.u.u.u.u.u.u.u.u.u.u.u.u.u.u.u.u.u.u.u.u.u.u.u.u.u.u.u.u.u.u.u.u.u.u.u.u.u.% -.1 ; -.-., 5 & 2 1 5 , 1 o u.u.u.u.u.u.u.u.u.u.u.u.u.u.u.u.u.",
"u.u.u.u.u.u.u.u.u.u.u.u.u.u.u.u.u.u.u.u.u.u.u.u.u.u.u.u.u.u.u.u.u.u.u.u.u.u.u.u.% u , 5 u D d o , 5 , , & o u.u.u.u.u.u.u.u.u.u.u.u.u.u.u.u.u.",
"u.u.u.u.u.u.u.u.u.u.u.u.u.u.u.u.u.u.u.u.u.u.u.u.u.u.u.u.u.u.u.u.u.u.u.u.u.u.u.u.u.% ; , 6 , d o 5 , , d & 3 u.u.u.u.u.u.u.u.u.u.u.u.u.u.u.u.u.",
"u.u.u.u.u.u.u.u.u.u.u.u.u.u.u.u.u.u.u.u.u.u.u.u.u.u.u.u.u.u.u.u.u.u.u.u.u.u.u.u.u.q u s , , 6 S < , , o q u.u.u.u.u.u.u.u.u.u.u.u.u.u.u.u.u.u.",
"u.u.u.u.u.u.u.u.u.u.u.u.u.u.u.u.u.u.u.u.u.u.u.u.u.u.u.u.u.u.u.u.u.u.u.u.u.u.u.u.u.u.3 & < , 6 u.; D 5 q % u.u.u.u.u.u.u.u.u.u.u.u.u.u.u.u.u.u.",
"u.u.u.u.u.u.u.u.u.u.u.u.u.u.u.u.u.u.u.u.u.u.u.u.u.u.u.u.u.u.u.u.u.u.u.u.u.u.u.u.u.u.u -.& , V u.3.1 o -.u.u.u.u.u.u.u.u.u.u.u.u.u.u.u.u.u.u.u.",
"u.u.u.u.u.u.u.u.u.u.u.u.u.u.u.u.u.u.u.u.u.u.u.u.u.u.u.u.u.u.u.u.u.u.u.u.u.u.u.u.u.u.u.% % 1 Z u.u.& & 3 u.u.u.u.u.u.u.u.u.u.u.u.u.u.u.u.u.u.u.",
"u.u.u.u.u.u.u.u.u.u.u.u.u.u.u.u.u.u.u.u.u.u.u.u.u.u.u.u.u.u.u.u.u.u.u.u.u.u.u.u.u.u.u.u.% & u u.u.G F u.u.u.u.u.u.u.u.u.u.u.u.u.u.u.u.u.u.u.u.",
"u.u.u.u.u.u.u.u.u.u.u.u.u.u.u.u.u.u.u.u.u.u.u.u.u.u.u.u.u.u.u.u.u.u.u.u.u.u.u.u.u.u.u.u.u.% & u.u.u.u.u.u.u.u.u.u.u.u.u.u.u.u.u.u.u.u.u.u.u.u."
};
