/* XPM */
static char *_05d23e5570f42659c0c034d3025b06aDzmdyls1xKKLvBrn[] = {
/* columns rows colors chars-per-pixel */
"48 64 16 1 ",
"  c None",
". c black",
"X c #380000",
"o c #271C08",
"O c #38280C",
"+ c #5F0000",
"@ c #50380E",
"# c #717171",
"$ c #800000",
"% c red",
"& c gray58",
"* c #A3A39D",
"= c #C1C1C1",
"- c #CBCBC4",
"; c #F0EDD1",
": c white",
/* pixels */
"                                                ",
"                                                ",
"                                                ",
"                 ...... ......                  ",
"             ....+$$$$+.+$$$$+....              ",
"       ......X++$$$$$$$$$$$$$$$++X......        ",
"    ...;;;;;.++$$$$$$$$$$$$$$$$$++.;;;;;...     ",
"   .;;;;;;;;.++$$$$$$$$$$$$$$$$$++.;;;;;;;;.    ",
"  .;;;;;;;;;.++$$$$$$$$$$$$$$$$$++.;;;;;;;;;.   ",
" .;;;;;-----.++$$$$$+.$$$.+$$$$$++.-----;;;;;.  ",
" .;;;;-----*.X+..$$$$.$$$.$$$$..+X.*-----;;;;.  ",
" .;;;----***.X+$:.$$$$+++$$$$.:$+X.***----;;;.  ",
" .;;;-.*.....XX+.%.$$$$$$$$$.%.+XX.....*.-;;;.  ",
" .-;;;..     .X++.%.$$$$$$$.%.++X.     ..;;;-.  ",
" .-;;;.       .X+++.++$$$++.+++X.       .;;;-.  ",
" .*-;;;.       .X+++.+++++.+++X.       .;;;-*.  ",
"  .--;;;.........X++.$$.$$.++X.X.......;;;--.   ",
"   .--;;;;=.++++$.++$$$.$$$++.$$+++.=;;;;--.    ",
"    .-----.$$$$$$.++$$$.$$$++.$$$$$$.-----.     ",
"     .....$$$$$$$.X+.......+X.$$$$$$$.....      ",
"      .+$$$$$$$$$.X.........X.$$$$$$$$$$+.      ",
"     .+$$$$$$$$$$$...........$$$$$$$$$$$$+.     ",
"     .$$$$$$+$$$$$...#&.#&...$$$$$$+$$$$$$.     ",
"    .+$$$$$$++$$$$...........$$$$$++$$$$$$+.    ",
"    .$$$$$$$++++$$$.........$$$$++++$$$$$$$..   ",
"    .$$$$$$$$.+++++++.+$$+.+++++++.$$$$$$$$..   ",
"   .+$$$$$$$+........$$$$$$........+$$$$$$$+.   ",
"   .+$$$$$$$.XXX++++$$$$$$$$++++XXX.$$$$$$$+.   ",
"   .+$$$$++X..X$$$$$$$$++$$$$$$$$X..X++$$$$+.   ",
"   .+$$$$.X. .+$$$$$$$$++$$$$$$$$+. .X.$$$$+.   ",
"   .++$$$$.. .+$$$$$$$$++$$$$$$$$+. ..$$$$++.   ",
"   .+$$$$$$. .X+$$$$$$$++$$$$$$$+X. .$$$$$$+.   ",
"   .X+$$$$$$....X+++++XXXX+++++X....$$$$$$+X.   ",
"    .++$$$$$.Ooo................ooO.$$$$$++.    ",
"    .X+$$$$$$.@oooooooooooooooooo@.$$$$$$+X.    ",
"    ..X++$$$$.oooOOOOOOOOOOOOOOooo.$$$$++X..    ",
"      .XX+$$$$..oO@@@@@@@@@@@@Oo..$$$$+XX.      ",
"       ..X+$$$.+.oO@@@@@@@@@@Oo.+.$$$+X..       ",
"        ..++$$$.+.oO@@@@@@@@Oo.+.$$$++..        ",
"         .X+$$$+...oO@@@@@@Oo...+$$$+X.         ",
"        ...++$$.....oO@@@@Oo.....$$++...        ",
"       .+$.X++.:...+.o@@@@O.+...:.++X.$+.       ",
"       .+$..X..:...+.oOOOOo.+...:..X..$+.       ",
"      .+$$$.....:..+X.oooo.X+..:.....$$$+.      ",
"      .+$$$.......++XX....XX++.......$$$+.      ",
"     .+$$$$$$$+++++XX.    .XX+++++$$$$$$$+.     ",
"     .+$$$$$$++++XXX.      .XXX++++$$$$$$+.     ",
"     .+$$$$$++++XX..        ..XX++++$$$$$+.     ",
"     .+$$$$++++XX.            .XX++++$$$$+.     ",
"     .++$$++++XX.              .XX++++$$++.     ",
"      .++++++XX.                .XX++++++.      ",
"       .++++XX+$.              .$+XX++++.       ",
"        .+++XXX+$.            .$+XXX+++.        ",
"        .++++XXXX.            .XXXX++++.        ",
"        .X++++XXX.            .XXX++++X.        ",
"        .XX++XXX.              .XXX++XX.        ",
"       ..XXXXX...              ...XXXXX..       ",
"      ....X.....                .....X....      ",
"      ....:.....                .....:....      ",
"      ...:.....                  .....:...      ",
"     ....:.....                  .....:....     ",
"     .........                    .........     ",
"                                                ",
"                                                "
};
