/* XPM */
static char *d45fbe9b50294e6f8135634f4214f37cJ7uS7ildi3hwdQGi[] = {
/* columns rows colors chars-per-pixel */
"32 32 80 1 ",
"  c #193F01",
". c #1C4402",
"X c #1F4906",
"o c #214404",
"O c #224B04",
"+ c #23460A",
"@ c #254B0B",
"# c #294E0C",
"$ c #26520A",
"% c #2A530C",
"& c #2F590E",
"* c #30560D",
"= c #30580F",
"- c #274F10",
"; c #2A4E12",
": c #2C5312",
"> c #2E5813",
", c #2D5419",
"< c #325514",
"1 c #335B15",
"2 c #385E13",
"3 c #33561A",
"4 c #345C1A",
"5 c #395E1D",
"6 c #366114",
"7 c #386216",
"8 c #37611C",
"9 c #3B631D",
"0 c #3E681D",
"q c #375D20",
"w c #3B5E22",
"e c #366020",
"r c #3D6422",
"t c #3E6922",
"y c #3E6429",
"u c #41661D",
"i c #426B1E",
"p c #416624",
"a c #436B25",
"s c #486D25",
"d c #43672A",
"f c #456C2B",
"g c #496D2C",
"h c #467124",
"j c #497327",
"k c #46712A",
"l c #4B732D",
"z c #4E792B",
"x c #51772D",
"c c #507A2E",
"v c #456B33",
"b c #486D32",
"n c #4C7332",
"m c #4F7933",
"M c #4D7439",
"N c #527634",
"B c #537A35",
"V c #587C36",
"C c #527739",
"Z c #547C3A",
"A c #5B7E3C",
"S c #557C41",
"D c #578236",
"F c #5B8137",
"G c #56813B",
"H c #5B833C",
"J c #5E883E",
"K c #5C8442",
"L c #5E8449",
"P c #608544",
"I c #638A46",
"U c #688D46",
"Y c #648C4A",
"T c #6A934C",
"R c #688F51",
"E c #6D9452",
"W c #719552",
"Q c #7B9F59",
"! c #7AA25B",
"~ c #7CA760",
/* pixels */
"fOnHBVl2Y>8ylnpNV9al4bpKZnrHjhaj",
"nt>rjBll%amer43s%F1>A,:14>l8lz$6",
"rmCa%r@llZ.Gg5lupgapd+Mba1lZXrll",
"$f84g9%a9mtTr54<pp44wMSAMnr-MKrm",
"4>4n4#4>8la9%r3Kn@dW3+bwqRyn---:",
"1>wXf4qm40mk:<;+gAdAd+g3XSMK84ry",
">9Z4yM;Ch.2aarf.uANgpAp<3y-:neEy",
"aT:byMrZ8lhJAa;4<x#sAUNw,,b>$>Gt",
"$94fwvr3tDlHkttn:sUgNpp4MfMKbee>",
"a.aM3;bqpt00Dt,K5gaVl4rfL:vyMKGK",
"k1 bddIrttOtk196f:#41::@8ny,,Xte",
"t8Lr;b34tkDDhtl>r@CN4r4fe,yvyyyt",
"f1:Z:4l<Okkt0$DDrr:49lWl+vMvym,>",
"nyefZIpp$rkm6tj0rnpC1l%5  v;:8tt",
",>etPBul>.$hThDt4Hfl4iasw.@AppGa",
"LG8.a9<I4l9~k&0z@2l92gllffpAr*ss",
"l99DrhhKmGeGtttth.BKZHn>Y&2usB2N",
"4a1<nf:,,4ttDD&tla>tMnlB>fl2s<ap",
"pgl4tGlrtetKX8zt8Glf#f$snZNiusN5",
"uprC9m4Lmbt$GGtmOar4n5%s8fBx5<33",
"NoNgN.>n,Ren:XX%1>3N3#**udsAOP<A",
"pAp#nm+mye,Ke8ty5<d+vaJs#Nxuug#;",
"wAVpXrr4nfy-MeTy1wZw5VxVo+Nu<dd+",
"3NoNZ#fnfyy,-:KyrW<fNg2jpNWsAp;3",
"3gWsNd5gw;wbNpf3-r4f 2h0uw<Flfff",
"dgpNgw<5ggw;5pZYeXff@jiJx;alla;K",
"d<#w<Hfpg3upgdb>Z-mM>&hi<w49k6r,",
"woCN67<p*A g33pgrtt:Z>0&ggICa0l&",
"rf$12cTBxNQspN@8f14Ml1a1@yl0t>Dm",
"rlrm<jO0uOpV4Ba2my4lK9i9:yfl60hh",
"4Lkk70jixFsguuJNXttrJA8h:@$jThD0",
">4ka>lzhi5sVu*51rZ8@ar=Yrv9!h66z"
};
